<svg width="68" height="35" viewBox="0 0 68 35" fill="none" xmlns="http://www.w3.org/2000/svg">
<path d="M28.0251 3.768V5.96H25.0491V15H22.3131V5.96H19.3371V3.768H28.0251ZM34.8863 5.976C35.9103 5.976 36.7316 6.31733 37.3503 7C37.9689 7.672 38.2783 8.6 38.2783 9.784V15H35.5583V10.152C35.5583 9.55467 35.4036 9.09067 35.0943 8.76C34.7849 8.42933 34.3689 8.264 33.8463 8.264C33.3236 8.264 32.9076 8.42933 32.5983 8.76C32.2889 9.09067 32.1343 9.55467 32.1343 10.152V15H29.3983V3.16H32.1343V7.272C32.4116 6.87733 32.7903 6.56267 33.2703 6.328C33.7503 6.09333 34.2889 5.976 34.8863 5.976ZM48.5955 10.392C48.5955 10.648 48.5795 10.9147 48.5475 11.192H42.3555C42.3982 11.7467 42.5742 12.1733 42.8835 12.472C43.2035 12.76 43.5928 12.904 44.0515 12.904C44.7342 12.904 45.2088 12.616 45.4755 12.04H48.3875C48.2382 12.6267 47.9662 13.1547 47.5715 13.624C47.1875 14.0933 46.7022 14.4613 46.1155 14.728C45.5288 14.9947 44.8728 15.128 44.1475 15.128C43.2728 15.128 42.4942 14.9413 41.8115 14.568C41.1288 14.1947 40.5955 13.6613 40.2115 12.968C39.8275 12.2747 39.6355 11.464 39.6355 10.536C39.6355 9.608 39.8222 8.79733 40.1955 8.104C40.5795 7.41067 41.1128 6.87733 41.7955 6.504C42.4782 6.13067 43.2622 5.944 44.1475 5.944C45.0115 5.944 45.7795 6.12533 46.4515 6.488C47.1235 6.85067 47.6462 7.368 48.0195 8.04C48.4035 8.712 48.5955 9.496 48.5955 10.392ZM45.7955 9.672C45.7955 9.20267 45.6355 8.82933 45.3155 8.552C44.9955 8.27467 44.5955 8.136 44.1155 8.136C43.6568 8.136 43.2675 8.26933 42.9475 8.536C42.6382 8.80267 42.4462 9.18133 42.3715 9.672H45.7955ZM12.9811 25.368C12.9811 24.2587 13.2211 23.272 13.7011 22.408C14.1811 21.5333 14.8478 20.856 15.7011 20.376C16.5651 19.8853 17.5411 19.64 18.6291 19.64C19.9625 19.64 21.1038 19.992 22.0531 20.696C23.0025 21.4 23.6371 22.36 23.9571 23.576H20.9491C20.7251 23.1067 20.4051 22.7493 19.9891 22.504C19.5838 22.2587 19.1198 22.136 18.5971 22.136C17.7545 22.136 17.0718 22.4293 16.5491 23.016C16.0265 23.6027 15.7651 24.3867 15.7651 25.368C15.7651 26.3493 16.0265 27.1333 16.5491 27.72C17.0718 28.3067 17.7545 28.6 18.5971 28.6C19.1198 28.6 19.5838 28.4773 19.9891 28.232C20.4051 27.9867 20.7251 27.6293 20.9491 27.16H23.9571C23.6371 28.376 23.0025 29.336 22.0531 30.04C21.1038 30.7333 19.9625 31.08 18.6291 31.08C17.5411 31.08 16.5651 30.84 15.7011 30.36C14.8478 29.8693 14.1811 29.192 13.7011 28.328C13.2211 27.464 12.9811 26.4773 12.9811 25.368ZM29.6966 31.128C28.822 31.128 28.0326 30.9413 27.3286 30.568C26.6353 30.1947 26.086 29.6613 25.6806 28.968C25.286 28.2747 25.0886 27.464 25.0886 26.536C25.0886 25.6187 25.2913 24.8133 25.6966 24.12C26.102 23.416 26.6566 22.8773 27.3606 22.504C28.0646 22.1307 28.854 21.944 29.7286 21.944C30.6033 21.944 31.3926 22.1307 32.0966 22.504C32.8006 22.8773 33.3553 23.416 33.7606 24.12C34.166 24.8133 34.3686 25.6187 34.3686 26.536C34.3686 27.4533 34.1606 28.264 33.7446 28.968C33.3393 29.6613 32.7793 30.1947 32.0646 30.568C31.3606 30.9413 30.5713 31.128 29.6966 31.128ZM29.6966 28.76C30.2193 28.76 30.662 28.568 31.0246 28.184C31.398 27.8 31.5846 27.2507 31.5846 26.536C31.5846 25.8213 31.4033 25.272 31.0406 24.888C30.6886 24.504 30.2513 24.312 29.7286 24.312C29.1953 24.312 28.7526 24.504 28.4006 24.888C28.0486 25.2613 27.8726 25.8107 27.8726 26.536C27.8726 27.2507 28.0433 27.8 28.3846 28.184C28.7366 28.568 29.174 28.76 29.6966 28.76ZM35.2761 26.52C35.2761 25.6027 35.4468 24.7973 35.7881 24.104C36.1401 23.4107 36.6148 22.8773 37.2121 22.504C37.8095 22.1307 38.4761 21.944 39.2121 21.944C39.7988 21.944 40.3321 22.0667 40.8121 22.312C41.3028 22.5573 41.6868 22.888 41.9641 23.304V19.16H44.7001V31H41.9641V29.72C41.7081 30.1467 41.3401 30.488 40.8601 30.744C40.3908 31 39.8415 31.128 39.2121 31.128C38.4761 31.128 37.8095 30.9413 37.2121 30.568C36.6148 30.184 36.1401 29.6453 35.7881 28.952C35.4468 28.248 35.2761 27.4373 35.2761 26.52ZM41.9641 26.536C41.9641 25.8533 41.7721 25.3147 41.3881 24.92C41.0148 24.5253 40.5561 24.328 40.0121 24.328C39.4681 24.328 39.0041 24.5253 38.6201 24.92C38.2468 25.304 38.0601 25.8373 38.0601 26.52C38.0601 27.2027 38.2468 27.7467 38.6201 28.152C39.0041 28.5467 39.4681 28.744 40.0121 28.744C40.5561 28.744 41.0148 28.5467 41.3881 28.152C41.7721 27.7573 41.9641 27.2187 41.9641 26.536ZM55.0955 26.392C55.0955 26.648 55.0795 26.9147 55.0475 27.192H48.8555C48.8982 27.7467 49.0742 28.1733 49.3835 28.472C49.7035 28.76 50.0928 28.904 50.5515 28.904C51.2342 28.904 51.7088 28.616 51.9755 28.04H54.8875C54.7382 28.6267 54.4662 29.1547 54.0715 29.624C53.6875 30.0933 53.2022 30.4613 52.6155 30.728C52.0288 30.9947 51.3728 31.128 50.6475 31.128C49.7728 31.128 48.9942 30.9413 48.3115 30.568C47.6288 30.1947 47.0955 29.6613 46.7115 28.968C46.3275 28.2747 46.1355 27.464 46.1355 26.536C46.1355 25.608 46.3222 24.7973 46.6955 24.104C47.0795 23.4107 47.6128 22.8773 48.2955 22.504C48.9782 22.1307 49.7622 21.944 50.6475 21.944C51.5115 21.944 52.2795 22.1253 52.9515 22.488C53.6235 22.8507 54.1462 23.368 54.5195 24.04C54.9035 24.712 55.0955 25.496 55.0955 26.392ZM52.2955 25.672C52.2955 25.2027 52.1355 24.8293 51.8155 24.552C51.4955 24.2747 51.0955 24.136 50.6155 24.136C50.1568 24.136 49.7675 24.2693 49.4475 24.536C49.1382 24.8027 48.9462 25.1813 48.8715 25.672H52.2955Z" fill="black"/>
<path d="M0.744649 15.4C1.72465 15.36 2.44465 15.15 2.90465 14.77C3.36465 14.37 3.59465 13.81 3.59465 13.09C3.59465 12.55 3.49465 11.48 3.29465 9.88C3.27465 9.72 3.21465 9.21 3.11465 8.35C3.01465 7.47 2.96465 6.68 2.96465 5.98C2.96465 4.28 3.48465 2.96 4.52465 2.02C5.56465 1.06 6.95465 0.579999 8.69465 0.579999H10.8546V4.78H9.68465C9.04465 4.78 8.58465 4.92 8.30465 5.2C8.02465 5.48 7.88465 5.91 7.88465 6.49C7.88465 6.93 7.96465 7.93 8.12465 9.49C8.30465 11.43 8.39465 12.7 8.39465 13.3C8.39465 14.4 8.12465 15.31 7.58465 16.03C7.06465 16.75 6.26465 17.21 5.18465 17.41V17.47C6.26465 17.69 7.06465 18.16 7.58465 18.88C8.12465 19.58 8.39465 20.49 8.39465 21.61C8.39465 22.21 8.30465 23.48 8.12465 25.42C7.96465 26.94 7.88465 27.93 7.88465 28.39C7.88465 28.97 8.02465 29.4 8.30465 29.68C8.58465 29.98 9.04465 30.13 9.68465 30.13H10.8546V34.33H8.69465C6.95465 34.33 5.56465 33.85 4.52465 32.89C3.48465 31.95 2.96465 30.62 2.96465 28.9C2.96465 28.2 3.01465 27.42 3.11465 26.56C3.21465 25.68 3.27465 25.16 3.29465 25C3.49465 23.4 3.59465 22.33 3.59465 21.79C3.59465 21.11 3.36465 20.57 2.90465 20.17C2.44465 19.75 1.72465 19.52 0.744649 19.48V15.4Z" fill="black"/>
<path d="M67.2546 19.48C66.2746 19.52 65.5546 19.75 65.0946 20.17C64.6346 20.57 64.4046 21.11 64.4046 21.79C64.4046 22.33 64.5046 23.4 64.7046 25C64.7246 25.16 64.7846 25.68 64.8846 26.56C64.9846 27.42 65.0346 28.2 65.0346 28.9C65.0346 30.62 64.5146 31.95 63.4746 32.89C62.4346 33.85 61.0446 34.33 59.3046 34.33H57.1446V30.13H58.3146C58.9546 30.13 59.4146 29.98 59.6946 29.68C59.9746 29.4 60.1146 28.97 60.1146 28.39C60.1146 27.93 60.0346 26.94 59.8746 25.42C59.6946 23.48 59.6046 22.21 59.6046 21.61C59.6046 20.49 59.8646 19.58 60.3846 18.88C60.9246 18.16 61.7346 17.69 62.8146 17.47V17.41C61.7346 17.21 60.9246 16.75 60.3846 16.03C59.8646 15.31 59.6046 14.4 59.6046 13.3C59.6046 12.7 59.6946 11.43 59.8746 9.49C60.0346 7.93 60.1146 6.93 60.1146 6.49C60.1146 5.91 59.9746 5.48 59.6946 5.2C59.4146 4.92 58.9546 4.78 58.3146 4.78H57.1446V0.579999H59.3046C61.0446 0.579999 62.4346 1.06 63.4746 2.02C64.5146 2.96 65.0346 4.28 65.0346 5.98C65.0346 6.68 64.9846 7.47 64.8846 8.35C64.7846 9.21 64.7246 9.72 64.7046 9.88C64.5046 11.48 64.4046 12.55 64.4046 13.09C64.4046 13.81 64.6346 14.37 65.0946 14.77C65.5546 15.15 66.2746 15.36 67.2546 15.4V19.48Z" fill="black"/>
</svg>
