<svg width="72" height="35" viewBox="0 0 72 35" fill="none" xmlns="http://www.w3.org/2000/svg">
<path d="M16.6511 10.536C16.6511 9.608 16.8378 8.79733 17.2111 8.104C17.5951 7.41067 18.1231 6.87733 18.7951 6.504C19.4778 6.13067 20.2565 5.944 21.1311 5.944C22.2511 5.944 23.1845 6.23733 23.9311 6.824C24.6885 7.41067 25.1845 8.23733 25.4191 9.304H22.5071C22.2618 8.62133 21.7871 8.28 21.0831 8.28C20.5818 8.28 20.1818 8.47733 19.8831 8.872C19.5845 9.256 19.4351 9.81067 19.4351 10.536C19.4351 11.2613 19.5845 11.8213 19.8831 12.216C20.1818 12.6 20.5818 12.792 21.0831 12.792C21.7871 12.792 22.2618 12.4507 22.5071 11.768H25.4191C25.1845 12.8133 24.6885 13.6347 23.9311 14.232C23.1738 14.8293 22.2405 15.128 21.1311 15.128C20.2565 15.128 19.4778 14.9413 18.7951 14.568C18.1231 14.1947 17.5951 13.6613 17.2111 12.968C16.8378 12.2747 16.6511 11.464 16.6511 10.536ZM30.9466 15.128C30.072 15.128 29.2826 14.9413 28.5786 14.568C27.8853 14.1947 27.336 13.6613 26.9306 12.968C26.536 12.2747 26.3386 11.464 26.3386 10.536C26.3386 9.61867 26.5413 8.81333 26.9466 8.12C27.352 7.416 27.9066 6.87733 28.6106 6.504C29.3146 6.13067 30.104 5.944 30.9786 5.944C31.8533 5.944 32.6426 6.13067 33.3466 6.504C34.0506 6.87733 34.6053 7.416 35.0106 8.12C35.416 8.81333 35.6186 9.61867 35.6186 10.536C35.6186 11.4533 35.4106 12.264 34.9946 12.968C34.5893 13.6613 34.0293 14.1947 33.3146 14.568C32.6106 14.9413 31.8213 15.128 30.9466 15.128ZM30.9466 12.76C31.4693 12.76 31.912 12.568 32.2746 12.184C32.648 11.8 32.8346 11.2507 32.8346 10.536C32.8346 9.82133 32.6533 9.272 32.2906 8.888C31.9386 8.504 31.5013 8.312 30.9786 8.312C30.4453 8.312 30.0026 8.504 29.6506 8.888C29.2986 9.26133 29.1226 9.81067 29.1226 10.536C29.1226 11.2507 29.2933 11.8 29.6346 12.184C29.9866 12.568 30.424 12.76 30.9466 12.76ZM36.5261 10.52C36.5261 9.60267 36.6968 8.79733 37.0381 8.104C37.3901 7.41067 37.8648 6.87733 38.4621 6.504C39.0595 6.13067 39.7261 5.944 40.4621 5.944C41.0488 5.944 41.5821 6.06667 42.0621 6.312C42.5528 6.55733 42.9368 6.888 43.2141 7.304V3.16H45.9501V15H43.2141V13.72C42.9581 14.1467 42.5901 14.488 42.1101 14.744C41.6408 15 41.0915 15.128 40.4621 15.128C39.7261 15.128 39.0595 14.9413 38.4621 14.568C37.8648 14.184 37.3901 13.6453 37.0381 12.952C36.6968 12.248 36.5261 11.4373 36.5261 10.52ZM43.2141 10.536C43.2141 9.85333 43.0221 9.31467 42.6381 8.92C42.2648 8.52533 41.8061 8.328 41.2621 8.328C40.7181 8.328 40.2541 8.52533 39.8701 8.92C39.4968 9.304 39.3101 9.83733 39.3101 10.52C39.3101 11.2027 39.4968 11.7467 39.8701 12.152C40.2541 12.5467 40.7181 12.744 41.2621 12.744C41.8061 12.744 42.2648 12.5467 42.6381 12.152C43.0221 11.7573 43.2141 11.2187 43.2141 10.536ZM56.3455 10.392C56.3455 10.648 56.3295 10.9147 56.2975 11.192H50.1055C50.1482 11.7467 50.3242 12.1733 50.6335 12.472C50.9535 12.76 51.3428 12.904 51.8015 12.904C52.4842 12.904 52.9588 12.616 53.2255 12.04H56.1375C55.9882 12.6267 55.7162 13.1547 55.3215 13.624C54.9375 14.0933 54.4522 14.4613 53.8655 14.728C53.2788 14.9947 52.6228 15.128 51.8975 15.128C51.0228 15.128 50.2442 14.9413 49.5615 14.568C48.8788 14.1947 48.3455 13.6613 47.9615 12.968C47.5775 12.2747 47.3855 11.464 47.3855 10.536C47.3855 9.608 47.5722 8.79733 47.9455 8.104C48.3295 7.41067 48.8628 6.87733 49.5455 6.504C50.2282 6.13067 51.0122 5.944 51.8975 5.944C52.7615 5.944 53.5295 6.12533 54.2015 6.488C54.8735 6.85067 55.3962 7.368 55.7695 8.04C56.1535 8.712 56.3455 9.496 56.3455 10.392ZM53.5455 9.672C53.5455 9.20267 53.3855 8.82933 53.0655 8.552C52.7455 8.27467 52.3455 8.136 51.8655 8.136C51.4068 8.136 51.0175 8.26933 50.6975 8.536C50.3882 8.80267 50.1962 9.18133 50.1215 9.672H53.5455ZM22.3977 28.68V31H21.0057C20.0137 31 19.2404 30.76 18.6857 30.28C18.131 29.7893 17.8537 28.9947 17.8537 27.896V24.344H16.7657V22.072H17.8537V19.896H20.5897V22.072H22.3817V24.344H20.5897V27.928C20.5897 28.1947 20.6537 28.3867 20.7817 28.504C20.9097 28.6213 21.123 28.68 21.4217 28.68H22.3977ZM32.3377 26.392C32.3377 26.648 32.3217 26.9147 32.2897 27.192H26.0977C26.1404 27.7467 26.3164 28.1733 26.6257 28.472C26.9457 28.76 27.335 28.904 27.7937 28.904C28.4764 28.904 28.951 28.616 29.2177 28.04H32.1297C31.9804 28.6267 31.7084 29.1547 31.3137 29.624C30.9297 30.0933 30.4444 30.4613 29.8577 30.728C29.271 30.9947 28.615 31.128 27.8897 31.128C27.015 31.128 26.2364 30.9413 25.5537 30.568C24.871 30.1947 24.3377 29.6613 23.9537 28.968C23.5697 28.2747 23.3777 27.464 23.3777 26.536C23.3777 25.608 23.5644 24.7973 23.9377 24.104C24.3217 23.4107 24.855 22.8773 25.5377 22.504C26.2204 22.1307 27.0044 21.944 27.8897 21.944C28.7537 21.944 29.5217 22.1253 30.1937 22.488C30.8657 22.8507 31.3884 23.368 31.7617 24.04C32.1457 24.712 32.3377 25.496 32.3377 26.392ZM29.5377 25.672C29.5377 25.2027 29.3777 24.8293 29.0577 24.552C28.7377 24.2747 28.3377 24.136 27.8577 24.136C27.399 24.136 27.0097 24.2693 26.6897 24.536C26.3804 24.8027 26.1884 25.1813 26.1137 25.672H29.5377ZM36.5171 23.56C36.8371 23.0693 37.2371 22.6853 37.7171 22.408C38.1971 22.12 38.7304 21.976 39.3171 21.976V24.872H38.5651C37.8824 24.872 37.3704 25.0213 37.0291 25.32C36.6877 25.608 36.5171 26.12 36.5171 26.856V31H33.7811V22.072H36.5171V23.56ZM52.0168 21.976C53.1261 21.976 54.0061 22.312 54.6568 22.984C55.3181 23.656 55.6488 24.5893 55.6488 25.784V31H52.9288V26.152C52.9288 25.576 52.7741 25.1333 52.4648 24.824C52.1661 24.504 51.7501 24.344 51.2168 24.344C50.6835 24.344 50.2621 24.504 49.9528 24.824C49.6541 25.1333 49.5048 25.576 49.5048 26.152V31H46.7848V26.152C46.7848 25.576 46.6301 25.1333 46.3208 24.824C46.0221 24.504 45.6061 24.344 45.0728 24.344C44.5395 24.344 44.1181 24.504 43.8088 24.824C43.5101 25.1333 43.3608 25.576 43.3608 26.152V31H40.6248V22.072H43.3608V23.192C43.6381 22.8187 44.0008 22.5253 44.4488 22.312C44.8968 22.088 45.4035 21.976 45.9688 21.976C46.6408 21.976 47.2381 22.12 47.7608 22.408C48.2941 22.696 48.7101 23.1067 49.0088 23.64C49.3181 23.1493 49.7395 22.7493 50.2728 22.44C50.8061 22.1307 51.3875 21.976 52.0168 21.976Z" fill="black"/>
<path d="M2.74465 15.4C3.72465 15.36 4.44465 15.15 4.90465 14.77C5.36465 14.37 5.59465 13.81 5.59465 13.09C5.59465 12.55 5.49465 11.48 5.29465 9.88C5.27465 9.72 5.21465 9.21 5.11465 8.35C5.01465 7.47 4.96465 6.68 4.96465 5.98C4.96465 4.28 5.48465 2.96 6.52465 2.02C7.56465 1.06 8.95465 0.579999 10.6946 0.579999H12.8546V4.78H11.6846C11.0446 4.78 10.5846 4.92 10.3046 5.2C10.0246 5.48 9.88465 5.91 9.88465 6.49C9.88465 6.93 9.96465 7.93 10.1246 9.49C10.3046 11.43 10.3946 12.7 10.3946 13.3C10.3946 14.4 10.1246 15.31 9.58465 16.03C9.06465 16.75 8.26465 17.21 7.18465 17.41V17.47C8.26465 17.69 9.06465 18.16 9.58465 18.88C10.1246 19.58 10.3946 20.49 10.3946 21.61C10.3946 22.21 10.3046 23.48 10.1246 25.42C9.96465 26.94 9.88465 27.93 9.88465 28.39C9.88465 28.97 10.0246 29.4 10.3046 29.68C10.5846 29.98 11.0446 30.13 11.6846 30.13H12.8546V34.33H10.6946C8.95465 34.33 7.56465 33.85 6.52465 32.89C5.48465 31.95 4.96465 30.62 4.96465 28.9C4.96465 28.2 5.01465 27.42 5.11465 26.56C5.21465 25.68 5.27465 25.16 5.29465 25C5.49465 23.4 5.59465 22.33 5.59465 21.79C5.59465 21.11 5.36465 20.57 4.90465 20.17C4.44465 19.75 3.72465 19.52 2.74465 19.48V15.4Z" fill="black"/>
<path d="M69.2546 19.48C68.2746 19.52 67.5546 19.75 67.0946 20.17C66.6346 20.57 66.4046 21.11 66.4046 21.79C66.4046 22.33 66.5046 23.4 66.7046 25C66.7246 25.16 66.7846 25.68 66.8846 26.56C66.9846 27.42 67.0346 28.2 67.0346 28.9C67.0346 30.62 66.5146 31.95 65.4746 32.89C64.4346 33.85 63.0446 34.33 61.3046 34.33H59.1446V30.13H60.3146C60.9546 30.13 61.4146 29.98 61.6946 29.68C61.9746 29.4 62.1146 28.97 62.1146 28.39C62.1146 27.93 62.0346 26.94 61.8746 25.42C61.6946 23.48 61.6046 22.21 61.6046 21.61C61.6046 20.49 61.8646 19.58 62.3846 18.88C62.9246 18.16 63.7346 17.69 64.8146 17.47V17.41C63.7346 17.21 62.9246 16.75 62.3846 16.03C61.8646 15.31 61.6046 14.4 61.6046 13.3C61.6046 12.7 61.6946 11.43 61.8746 9.49C62.0346 7.93 62.1146 6.93 62.1146 6.49C62.1146 5.91 61.9746 5.48 61.6946 5.2C61.4146 4.92 60.9546 4.78 60.3146 4.78H59.1446V0.579999H61.3046C63.0446 0.579999 64.4346 1.06 65.4746 2.02C66.5146 2.96 67.0346 4.28 67.0346 5.98C67.0346 6.68 66.9846 7.47 66.8846 8.35C66.7846 9.21 66.7246 9.72 66.7046 9.88C66.5046 11.48 66.4046 12.55 66.4046 13.09C66.4046 13.81 66.6346 14.37 67.0946 14.77C67.5546 15.15 68.2746 15.36 69.2546 15.4V19.48Z" fill="black"/>
</svg>
