<svg width="72" height="35" viewBox="0 0 72 35" fill="none" xmlns="http://www.w3.org/2000/svg">
<path d="M30.0251 3.768V5.96H27.0491V15H24.3131V5.96H21.3371V3.768H30.0251ZM36.8863 5.976C37.9103 5.976 38.7316 6.31733 39.3503 7C39.9689 7.672 40.2783 8.6 40.2783 9.784V15H37.5583V10.152C37.5583 9.55467 37.4036 9.09067 37.0943 8.76C36.7849 8.42933 36.3689 8.264 35.8463 8.264C35.3236 8.264 34.9076 8.42933 34.5983 8.76C34.2889 9.09067 34.1343 9.55467 34.1343 10.152V15H31.3983V3.16H34.1343V7.272C34.4116 6.87733 34.7903 6.56267 35.2703 6.328C35.7503 6.09333 36.2889 5.976 36.8863 5.976ZM50.5955 10.392C50.5955 10.648 50.5795 10.9147 50.5475 11.192H44.3555C44.3982 11.7467 44.5742 12.1733 44.8835 12.472C45.2035 12.76 45.5928 12.904 46.0515 12.904C46.7342 12.904 47.2088 12.616 47.4755 12.04H50.3875C50.2382 12.6267 49.9662 13.1547 49.5715 13.624C49.1875 14.0933 48.7022 14.4613 48.1155 14.728C47.5288 14.9947 46.8728 15.128 46.1475 15.128C45.2728 15.128 44.4942 14.9413 43.8115 14.568C43.1288 14.1947 42.5955 13.6613 42.2115 12.968C41.8275 12.2747 41.6355 11.464 41.6355 10.536C41.6355 9.608 41.8222 8.79733 42.1955 8.104C42.5795 7.41067 43.1128 6.87733 43.7955 6.504C44.4782 6.13067 45.2622 5.944 46.1475 5.944C47.0115 5.944 47.7795 6.12533 48.4515 6.488C49.1235 6.85067 49.6462 7.368 50.0195 8.04C50.4035 8.712 50.5955 9.496 50.5955 10.392ZM47.7955 9.672C47.7955 9.20267 47.6355 8.82933 47.3155 8.552C46.9955 8.27467 46.5955 8.136 46.1155 8.136C45.6568 8.136 45.2675 8.26933 44.9475 8.536C44.6382 8.80267 44.4462 9.18133 44.3715 9.672H47.7955ZM14.9811 25.368C14.9811 24.2587 15.2211 23.272 15.7011 22.408C16.1811 21.5333 16.8478 20.856 17.7011 20.376C18.5651 19.8853 19.5411 19.64 20.6291 19.64C21.9625 19.64 23.1038 19.992 24.0531 20.696C25.0025 21.4 25.6371 22.36 25.9571 23.576H22.9491C22.7251 23.1067 22.4051 22.7493 21.9891 22.504C21.5838 22.2587 21.1198 22.136 20.5971 22.136C19.7545 22.136 19.0718 22.4293 18.5491 23.016C18.0265 23.6027 17.7651 24.3867 17.7651 25.368C17.7651 26.3493 18.0265 27.1333 18.5491 27.72C19.0718 28.3067 19.7545 28.6 20.5971 28.6C21.1198 28.6 21.5838 28.4773 21.9891 28.232C22.4051 27.9867 22.7251 27.6293 22.9491 27.16H25.9571C25.6371 28.376 25.0025 29.336 24.0531 30.04C23.1038 30.7333 21.9625 31.08 20.6291 31.08C19.5411 31.08 18.5651 30.84 17.7011 30.36C16.8478 29.8693 16.1811 29.192 15.7011 28.328C15.2211 27.464 14.9811 26.4773 14.9811 25.368ZM31.6966 31.128C30.822 31.128 30.0326 30.9413 29.3286 30.568C28.6353 30.1947 28.086 29.6613 27.6806 28.968C27.286 28.2747 27.0886 27.464 27.0886 26.536C27.0886 25.6187 27.2913 24.8133 27.6966 24.12C28.102 23.416 28.6566 22.8773 29.3606 22.504C30.0646 22.1307 30.854 21.944 31.7286 21.944C32.6033 21.944 33.3926 22.1307 34.0966 22.504C34.8006 22.8773 35.3553 23.416 35.7606 24.12C36.166 24.8133 36.3686 25.6187 36.3686 26.536C36.3686 27.4533 36.1606 28.264 35.7446 28.968C35.3393 29.6613 34.7793 30.1947 34.0646 30.568C33.3606 30.9413 32.5713 31.128 31.6966 31.128ZM31.6966 28.76C32.2193 28.76 32.662 28.568 33.0246 28.184C33.398 27.8 33.5846 27.2507 33.5846 26.536C33.5846 25.8213 33.4033 25.272 33.0406 24.888C32.6886 24.504 32.2513 24.312 31.7286 24.312C31.1953 24.312 30.7526 24.504 30.4006 24.888C30.0486 25.2613 29.8726 25.8107 29.8726 26.536C29.8726 27.2507 30.0433 27.8 30.3846 28.184C30.7366 28.568 31.174 28.76 31.6966 28.76ZM37.2761 26.52C37.2761 25.6027 37.4468 24.7973 37.7881 24.104C38.1401 23.4107 38.6148 22.8773 39.2121 22.504C39.8095 22.1307 40.4761 21.944 41.2121 21.944C41.7988 21.944 42.3321 22.0667 42.8121 22.312C43.3028 22.5573 43.6868 22.888 43.9641 23.304V19.16H46.7001V31H43.9641V29.72C43.7081 30.1467 43.3401 30.488 42.8601 30.744C42.3908 31 41.8415 31.128 41.2121 31.128C40.4761 31.128 39.8095 30.9413 39.2121 30.568C38.6148 30.184 38.1401 29.6453 37.7881 28.952C37.4468 28.248 37.2761 27.4373 37.2761 26.52ZM43.9641 26.536C43.9641 25.8533 43.7721 25.3147 43.3881 24.92C43.0148 24.5253 42.5561 24.328 42.0121 24.328C41.4681 24.328 41.0041 24.5253 40.6201 24.92C40.2468 25.304 40.0601 25.8373 40.0601 26.52C40.0601 27.2027 40.2468 27.7467 40.6201 28.152C41.0041 28.5467 41.4681 28.744 42.0121 28.744C42.5561 28.744 43.0148 28.5467 43.3881 28.152C43.7721 27.7573 43.9641 27.2187 43.9641 26.536ZM57.0955 26.392C57.0955 26.648 57.0795 26.9147 57.0475 27.192H50.8555C50.8982 27.7467 51.0742 28.1733 51.3835 28.472C51.7035 28.76 52.0928 28.904 52.5515 28.904C53.2342 28.904 53.7088 28.616 53.9755 28.04H56.8875C56.7382 28.6267 56.4662 29.1547 56.0715 29.624C55.6875 30.0933 55.2022 30.4613 54.6155 30.728C54.0288 30.9947 53.3728 31.128 52.6475 31.128C51.7728 31.128 50.9942 30.9413 50.3115 30.568C49.6288 30.1947 49.0955 29.6613 48.7115 28.968C48.3275 28.2747 48.1355 27.464 48.1355 26.536C48.1355 25.608 48.3222 24.7973 48.6955 24.104C49.0795 23.4107 49.6128 22.8773 50.2955 22.504C50.9782 22.1307 51.7622 21.944 52.6475 21.944C53.5115 21.944 54.2795 22.1253 54.9515 22.488C55.6235 22.8507 56.1462 23.368 56.5195 24.04C56.9035 24.712 57.0955 25.496 57.0955 26.392ZM54.2955 25.672C54.2955 25.2027 54.1355 24.8293 53.8155 24.552C53.4955 24.2747 53.0955 24.136 52.6155 24.136C52.1568 24.136 51.7675 24.2693 51.4475 24.536C51.1382 24.8027 50.9462 25.1813 50.8715 25.672H54.2955Z" fill="black"/>
<path d="M2.74465 15.4C3.72465 15.36 4.44465 15.15 4.90465 14.77C5.36465 14.37 5.59465 13.81 5.59465 13.09C5.59465 12.55 5.49465 11.48 5.29465 9.88C5.27465 9.72 5.21465 9.21 5.11465 8.35C5.01465 7.47 4.96465 6.68 4.96465 5.98C4.96465 4.28 5.48465 2.96 6.52465 2.02C7.56465 1.06 8.95465 0.579999 10.6946 0.579999H12.8546V4.78H11.6846C11.0446 4.78 10.5846 4.92 10.3046 5.2C10.0246 5.48 9.88465 5.91 9.88465 6.49C9.88465 6.93 9.96465 7.93 10.1246 9.49C10.3046 11.43 10.3946 12.7 10.3946 13.3C10.3946 14.4 10.1246 15.31 9.58465 16.03C9.06465 16.75 8.26465 17.21 7.18465 17.41V17.47C8.26465 17.69 9.06465 18.16 9.58465 18.88C10.1246 19.58 10.3946 20.49 10.3946 21.61C10.3946 22.21 10.3046 23.48 10.1246 25.42C9.96465 26.94 9.88465 27.93 9.88465 28.39C9.88465 28.97 10.0246 29.4 10.3046 29.68C10.5846 29.98 11.0446 30.13 11.6846 30.13H12.8546V34.33H10.6946C8.95465 34.33 7.56465 33.85 6.52465 32.89C5.48465 31.95 4.96465 30.62 4.96465 28.9C4.96465 28.2 5.01465 27.42 5.11465 26.56C5.21465 25.68 5.27465 25.16 5.29465 25C5.49465 23.4 5.59465 22.33 5.59465 21.79C5.59465 21.11 5.36465 20.57 4.90465 20.17C4.44465 19.75 3.72465 19.52 2.74465 19.48V15.4Z" fill="black"/>
<path d="M69.2546 19.48C68.2746 19.52 67.5546 19.75 67.0946 20.17C66.6346 20.57 66.4046 21.11 66.4046 21.79C66.4046 22.33 66.5046 23.4 66.7046 25C66.7246 25.16 66.7846 25.68 66.8846 26.56C66.9846 27.42 67.0346 28.2 67.0346 28.9C67.0346 30.62 66.5146 31.95 65.4746 32.89C64.4346 33.85 63.0446 34.33 61.3046 34.33H59.1446V30.13H60.3146C60.9546 30.13 61.4146 29.98 61.6946 29.68C61.9746 29.4 62.1146 28.97 62.1146 28.39C62.1146 27.93 62.0346 26.94 61.8746 25.42C61.6946 23.48 61.6046 22.21 61.6046 21.61C61.6046 20.49 61.8646 19.58 62.3846 18.88C62.9246 18.16 63.7346 17.69 64.8146 17.47V17.41C63.7346 17.21 62.9246 16.75 62.3846 16.03C61.8646 15.31 61.6046 14.4 61.6046 13.3C61.6046 12.7 61.6946 11.43 61.8746 9.49C62.0346 7.93 62.1146 6.93 62.1146 6.49C62.1146 5.91 61.9746 5.48 61.6946 5.2C61.4146 4.92 60.9546 4.78 60.3146 4.78H59.1446V0.579999H61.3046C63.0446 0.579999 64.4346 1.06 65.4746 2.02C66.5146 2.96 67.0346 4.28 67.0346 5.98C67.0346 6.68 66.9846 7.47 66.8846 8.35C66.7846 9.21 66.7246 9.72 66.7046 9.88C66.5046 11.48 66.4046 12.55 66.4046 13.09C66.4046 13.81 66.6346 14.37 67.0946 14.77C67.5546 15.15 68.2746 15.36 69.2546 15.4V19.48Z" fill="black"/>
</svg>
