<svg width="32" height="32" viewBox="0 0 32 32" fill="none" xmlns="http://www.w3.org/2000/svg">
<path fill-rule="evenodd" clip-rule="evenodd" d="M15.9998 2.66663C23.3638 2.66663 29.3332 8.63596 29.3332 16C29.3332 23.364 23.3638 29.3333 15.9998 29.3333C8.63584 29.3333 2.6665 23.364 2.6665 16C2.6665 8.63596 8.63584 2.66663 15.9998 2.66663ZM15.9998 5.33329C10.1088 5.33329 5.33317 10.1089 5.33317 16C5.33317 21.891 10.1088 26.6666 15.9998 26.6666C21.8909 26.6666 26.6665 21.891 26.6665 16C26.6665 10.1089 21.8909 5.33329 15.9998 5.33329ZM22.6665 16C20.8892 15.1106 18.6665 14.6666 15.9998 14.6666C13.3332 14.6666 11.1105 15.1106 9.33317 16C9.33317 19.6819 12.3179 22.6666 15.9998 22.6666C19.6817 22.6666 22.6665 19.6819 22.6665 16ZM11.3331 9.33329C12.9173 9.33297 14.2829 10.4477 14.5998 12H8.06644C8.38328 10.4477 9.74888 9.33297 11.3331 9.33329ZM23.9331 12C23.6163 10.4477 22.2507 9.33297 20.6664 9.33329C19.0822 9.33297 17.7166 10.4477 17.3998 12H23.9331Z" fill="#001018"/>
</svg>
