<svg width="32" height="32" viewBox="0 0 32 32" fill="none" xmlns="http://www.w3.org/2000/svg">
<path fill-rule="evenodd" clip-rule="evenodd" d="M15.9998 2.66663C23.3638 2.66663 29.3332 8.63596 29.3332 16C29.3332 16.9693 29.2305 17.9133 29.0332 18.824L26.6572 16.4466C26.8583 11.6355 23.811 7.28613 19.2203 5.83226C14.6297 4.37838 9.63418 6.18052 7.029 10.2303C4.42381 14.2801 4.85504 19.5732 8.08139 23.1479C11.3077 26.7226 16.5291 27.6924 20.8238 25.5146C21.3327 26.3212 22.0487 26.9764 22.8972 27.412C20.8174 28.6721 18.4315 29.3367 15.9998 29.3333C8.63584 29.3333 2.6665 23.364 2.6665 16C2.6665 8.63596 8.63584 2.66663 15.9998 2.66663ZM25.3332 18.896L27.2185 20.7813C28.2418 21.8043 28.2627 23.4566 27.2655 24.505C26.2684 25.5535 24.6171 25.6155 23.5441 24.6447C22.4712 23.674 22.3681 22.0248 23.3118 20.928L23.4478 20.7813L25.3332 18.896ZM20.9331 22.1826C19.7131 20.8413 17.9544 20 15.9998 20C14.121 19.9975 12.3289 20.7899 11.0664 22.1813L12.3264 23.328C13.3798 22.9106 14.6424 22.6666 15.9998 22.6666C17.3571 22.6666 18.6198 22.9093 19.6731 23.3293L20.9331 22.1826ZM11.3332 13.3333C12.4377 13.3333 13.3332 14.2287 13.3332 15.3333C13.3332 16.4379 12.4377 17.3333 11.3332 17.3333C10.2286 17.3333 9.33317 16.4379 9.33317 15.3333C9.33317 14.2287 10.2286 13.3333 11.3332 13.3333ZM22.6665 15.3333C22.6665 14.2287 21.7711 13.3333 20.6665 13.3333C19.5619 13.3333 18.6665 14.2287 18.6665 15.3333C18.6665 16.4379 19.5619 17.3333 20.6665 17.3333C21.7711 17.3333 22.6665 16.4379 22.6665 15.3333Z" fill="#001018"/>
</svg>
