 <svg width="24" height="24" viewBox="0 0 24 24" fill="none" xmlns="http://www.w3.org/2000/svg">
<path fill-rule="evenodd" clip-rule="evenodd" d="M1 12C1 6.44656 5.11437 1.85581 10.4615 1.10684L11.2754 2.83483C9.8756 4.11604 9 5.95503 9 7.99997C9 11.866 12.134 15 16 15C18.0449 15 19.8839 14.1244 21.1651 12.7246L22.8931 13.5385C22.1442 18.8856 17.5534 23 12 23C5.92487 23 1 18.0751 1 12ZM7.95756 3.95646C5.01728 5.4372 3 8.48351 3 12C3 16.9705 7.02944 21 12 21C15.5165 21 18.5628 18.9827 20.0435 16.0424C18.8278 16.6548 17.454 17 16 17C11.0294 17 7 12.9705 7 7.99997C7 6.54598 7.34519 5.17217 7.95756 3.95646Z" fill="black"/>
</svg>
